<svg height="512pt" viewBox="0 0 512 512" width="512pt" xmlns="http://www.w3.org/2000/svg"><path d="m512 256c0 141.386719-114.613281 256-256 256s-256-114.613281-256-256 114.613281-256 256-256 256 114.613281 256 256zm0 0" fill="#ffed93"/><path d="m512 256c0-30.78125-5.4375-60.289062-15.394531-87.628906l-97.390625-96.398438c-5.011719-5.503906-12.222656-8.972656-20.203125-8.972656h-246.023438c-15.039062 0-27.34375 12.304688-27.34375 27.34375v320.914062c0 8.230469 3.691407 15.644532 9.5 20.667969l70.683594 70.335938c22.300781 6.34375 45.839844 9.738281 70.171875 9.738281 141.386719 0 256-114.613281 256-256zm0 0" fill="#ffdc00"/><path d="m379.011719 438.601562h-246.023438c-15.039062 0-27.34375-12.304687-27.34375-27.34375v-320.914062c0-15.039062 12.304688-27.34375 27.34375-27.34375h246.023438c15.039062 0 27.34375 12.304688 27.34375 27.34375v320.914062c0 15.039063-12.304688 27.34375-27.34375 27.34375zm0 0" fill="#ff7490"/><path d="m406.351562 90.339844v320.921875c0 15.039062-12.300781 27.339843-27.339843 27.339843h-123.011719v-375.601562h123.011719c15.039062 0 27.339843 12.300781 27.339843 27.339844zm0 0" fill="#ff3963"/><path d="m137.007812 79.730469h237.988282v316.316406h-237.988282zm0 0" fill="#fff"/><path d="m256 79.730469h118.988281v316.320312h-118.988281zm0 0" fill="#fff5ca"/><path d="m324.222656 209.222656c0 37.675782-30.546875 68.21875-68.222656 68.21875s-68.222656-30.542968-68.222656-68.21875c0-37.679687 30.546875-68.222656 68.222656-68.222656s68.222656 30.542969 68.222656 68.222656zm0 0" fill="#005fd6"/><path d="m324.21875 209.21875c0 37.679688-30.539062 68.222656-68.21875 68.222656v-136.441406c37.679688 0 68.21875 30.539062 68.21875 68.21875zm0 0" fill="#0043a3"/><path d="m299.824219 128.054688h-87.652344c-11.808594 0-21.382813-9.574219-21.382813-21.382813v-43.671875h130.417969v43.675781c0 11.808594-9.570312 21.378907-21.382812 21.378907zm0 0" fill="#dadadc"/><path d="m321.210938 63v43.671875c0 11.808594-9.570313 21.386719-21.382813 21.386719h-43.828125v-65.058594zm0 0" fill="#cac7cd"/><path d="m137.007812 385.332031h237.984376v30h-237.984376zm0 0" fill="#00f8fe"/><path d="m256 385.328125h118.988281v30h-118.988281zm0 0" fill="#00dae1"/><path d="m182.503906 293.8125h146.992188v30h-146.992188zm0 0" fill="#dadadc"/><path d="m256 293.808594h73.5v30h-73.5zm0 0" fill="#cac7cd"/><path d="m182.503906 338.144531h146.992188v30h-146.992188zm0 0" fill="#dadadc"/><path d="m256 338.148438h73.5v30h-73.5zm0 0" fill="#cac7cd"/><path d="m276.996094 163.023438c-10.949219 0-13.230469 14.742187-20.996094 15.34375-7.765625-.601563-10.046875-15.34375-20.996094-15.34375-15.121094 0-31.226562 12.730468-16.554687 40.441406 15.761719 29.769531 5.585937 49.285156 15.6875 53.355468 6.023437 2.425782 9.246093-5.832031 10.964843-14.429687 1.679688-8.402344 6.414063-13.839844 10.898438-13.839844 4.488281 0 9.222656 5.4375 10.902344 13.839844 1.71875 8.597656 4.9375 16.855469 10.960937 14.429687 10.105469-4.070312-.074219-23.582031 15.691407-53.355468 14.667968-27.710938-1.4375-40.441406-16.558594-40.441406zm0 0" fill="#fff"/><path d="m293.550781 203.460938c-15.761719 29.777343-5.582031 49.289062-15.691406 53.359374-6.019531 2.429688-9.238281-5.832031-10.960937-14.429687-1.679688-8.402344-6.410157-13.839844-10.898438-13.839844v-50.179687c7.769531-.601563 10.050781-15.339844 21-15.339844 15.121094 0 31.21875 12.71875 16.550781 40.429688zm0 0" fill="#fff5ca"/></svg>