<svg id="Capa_1" enable-background="new 0 0 512 512" height="512" viewBox="0 0 512 512" width="512" xmlns="http://www.w3.org/2000/svg"><g><g><path d="m457 512h-280c-30.327 0-55-24.673-55-55v-360c0-30.327 24.673-55 55-55h280c30.327 0 55 24.673 55 55v360c0 30.327-24.673 55-55 55z" fill="#5e59ce"/><path d="m457 42h-140v470h140c30.327 0 55-24.673 55-55v-360c0-30.327-24.673-55-55-55z" fill="#524798"/><path d="m452 87v350c0 8.284-6.716 15-15 15h-240c-8.284 0-15-6.716-15-15v-350c0-8.284 6.716-15 15-15h240c8.284 0 15 6.716 15 15z" fill="#ffe278"/><path d="m437 72h-120v380h120c8.284 0 15-6.716 15-15v-350c0-8.284-6.716-15-15-15z" fill="#ffb454"/><path d="m377 312h-120c-8.284 0-15-6.716-15-15s6.716-15 15-15h120c8.284 0 15 6.716 15 15s-6.716 15-15 15z" fill="#5e59ce"/><path d="m377 382h-120c-8.284 0-15-6.716-15-15s6.716-15 15-15h120c8.284 0 15 6.716 15 15s-6.716 15-15 15z" fill="#5e59ce"/><path d="m377 282h-60v30h60c8.284 0 15-6.716 15-15s-6.716-15-15-15z" fill="#524798"/><path d="m377 352h-60v30h60c8.284 0 15-6.716 15-15s-6.716-15-15-15z" fill="#524798"/><g><path d="m317 242c-45.441 0-80.344-43.881-81.808-45.749-4.256-5.433-4.256-13.069 0-18.502 1.464-1.868 36.367-45.749 81.808-45.749s80.344 43.881 81.808 45.749c4.257 5.433 4.257 13.069 0 18.502-1.464 1.868-36.367 45.749-81.808 45.749z" fill="#f7f5f3"/></g><path d="m398.808 196.251c4.257-5.433 4.257-13.069 0-18.502-1.464-1.868-36.367-45.749-81.808-45.749v110c45.441 0 80.344-43.881 81.808-45.749z" fill="#ebe6e1"/><circle cx="317" cy="187" fill="#5e59ce" r="25"/><path d="m342 187c0-13.807-11.193-25-25-25v50c13.807 0 25-11.193 25-25z" fill="#524798"/><path d="m377 92h-120c-8.284 0-15-6.716-15-15v-32c0-24.813 20.187-45 45-45h60c24.813 0 45 20.187 45 45v32c0 8.284-6.716 15-15 15z" fill="#f17ab4"/><path d="m347 0h-30v92h60c8.284 0 15-6.716 15-15v-32c0-24.813-20.187-45-45-45z" fill="#ff3d7d"/></g><g><path d="m40 512c-6.339 0-11.994-3.985-14.126-9.955l-25-70c-1.641-4.594-.945-9.698 1.865-13.686 2.81-3.987 7.383-6.359 12.261-6.359h50c4.878 0 9.451 2.372 12.261 6.359 2.811 3.987 3.506 9.092 1.865 13.686l-25 70c-2.132 5.97-7.787 9.955-14.126 9.955z" fill="#ffdeaa"/><path d="m65 412h-25v100c6.339 0 11.994-3.985 14.126-9.955l25-70c1.641-4.594.945-9.698-1.865-13.686-2.81-3.987-7.383-6.359-12.261-6.359z" fill="#fac38f"/><path d="m65 122h-50c-8.284 0-15 6.716-15 15v290h80v-290c0-8.284-6.716-15-15-15z" fill="#f17ab4"/><path d="m65 122h-25v305h40v-290c0-8.284-6.716-15-15-15z" fill="#ff3d7d"/><path d="m55 62h-30c-13.807 0-25 11.193-25 25v50h80v-50c0-13.807-11.193-25-25-25z" fill="#5e59ce"/><path d="m55 62h-15v75h40v-50c0-13.807-11.193-25-25-25z" fill="#524798"/></g></g></svg>