<svg xmlns="http://www.w3.org/2000/svg" width="1552" height="1983" fill="none" viewBox="0 0 1552 1983"><path fill="#D0EFEB" d="M812.837 1565.33C793.959 1565.33 774.709 1564.79 755.161 1563.71C746.536 1422.39 739.436 1247.47 747.508 1134.18L790.772 1140.29C790.772 1140.29 828.658 1369.01 870.406 1563.62C851.589 1564.75 832.374 1565.33 812.837 1565.33V1565.33ZM599.941 1544.59C113.53 1449.77 -22.8118 1060.14 2.99091 729.407C35.3004 315.249 297.502 8.27527e-05 742.593 8.27527e-05C768.556 8.27527e-05 795.087 1.07357 822.283 3.25619C1280.61 40.1002 1588.58 298.821 1547.4 826.694C1518.96 1191.24 1341.27 1453.36 1036.12 1536.91C1018.48 1340.06 985.313 1080.99 927.542 966.756C932.865 961.849 935.257 958.608 935.257 958.608L890.734 788.726L903.896 733.424L909.732 708.894L922.98 711.884L1002.82 605.901C976.718 563.823 906.087 520.661 906.087 520.661C875.381 506.635 840.068 501.958 840.068 501.958L769.447 592.356L689.611 498.845C620.521 503.517 563.717 573.653 563.717 573.653L614.383 642.229C614.383 642.229 600.561 668.722 603.632 690.543C606.704 712.36 632.802 738.858 632.802 738.858L625.007 800.181L602.096 980.424C602.504 980.557 602.907 980.69 603.31 980.823C605.062 981.4 606.82 981.973 608.557 982.53C593.053 1046.47 556.129 1244.23 599.941 1544.59"/><path fill="#8AD7CE" d="M829.806 1983C592.152 1983 399.494 1963.11 399.494 1938.58C399.494 1924.51 462.788 1911.98 561.572 1903.84C545.051 1920.71 546.828 1934.24 546.828 1934.24L761.385 1933.46L764.457 1906.97L753.112 1906.83C754.774 1903.89 755.932 1899.8 756.672 1894.8C780.444 1894.37 804.871 1894.16 829.806 1894.16C877.632 1894.16 923.615 1894.96 966.592 1896.45C969.684 1907.72 973.344 1916.42 977.675 1920.88L966.733 1923.94L976.345 1948.77L1134.28 1907.19C1212.03 1915.22 1260.12 1926.32 1260.12 1938.58C1260.12 1963.11 1067.47 1983 829.806 1983"/><path fill="#F9B29B" d="M734.134 1723.84C734.134 1723.84 770.983 1879.69 752.558 1907.74C734.134 1935.8 599.025 1920.22 599.025 1920.22L617.449 1889.05C617.449 1889.05 651.226 1879.69 681.932 1867.22C692.214 1863.05 666.579 1720.72 666.579 1720.72L734.134 1723.84"/><path fill="#E69783" d="M752.543 1820.13C745.6 1772.36 734.134 1723.84 734.134 1723.84L666.58 1720.72C666.58 1720.72 675.125 1768.2 680.371 1809.12C704.456 1812.59 728.51 1816.29 752.543 1820.13Z"/><path fill="#ECF7F3" d="M657.37 1859.43L697.285 1906.19L764.457 1906.96L761.385 1933.46L546.828 1934.24C546.828 1934.24 540.685 1887.48 657.37 1859.43"/><path fill="#fff" d="M664.661 1894.89L760.232 1848.13L767.141 1869.17L683.085 1918.27L664.661 1894.89"/><path fill="#F9B29B" d="M950.136 1739.01C950.136 1739.01 953.585 1899.25 978.435 1921.62C1003.29 1943.99 1130.03 1894.01 1130.03 1894.01L1104.4 1868.62C1104.4 1868.62 1069.39 1868.31 1036.57 1864.19C1025.59 1862.81 1014.68 1718.54 1014.68 1718.54L950.136 1739.01Z"/><path fill="#E69783" d="M956.481 1836.89C951.214 1788.9 950.136 1739.01 950.136 1739.01L1014.68 1718.54C1014.68 1718.54 1018.33 1766.66 1023.52 1807.59C1001.09 1817.17 978.757 1826.97 956.481 1836.89Z"/><path fill="#ECF7F3" d="M1058.38 1850.31L1031.5 1905.83L966.733 1923.94L976.345 1948.77L1184.03 1894.08C1184.03 1894.08 1178.25 1847.28 1058.38 1850.31"/><path fill="#fff" d="M1060.21 1886.47L956.063 1865.96L954.658 1888.09L1048.26 1913.85L1060.21 1886.47"/><path fill="#1BB3B2" d="M614.609 960.017C614.609 960.017 515.71 1268.62 648.608 1784.99C648.608 1784.99 713.509 1794.16 772.231 1794.16C772.231 1794.16 732.054 1351.12 747.508 1134.18L790.772 1140.29C790.772 1140.29 877.309 1662.77 932.94 1800.27C932.94 1800.27 982.393 1812.49 1053.48 1788.05C1053.48 1788.05 1025.66 1134.18 920.578 953.903C815.5 773.629 614.609 960.017 614.609 960.017"/><path fill="#F9B29B" d="M933.721 689.991C933.721 689.991 1021.19 781.84 1022.7 798.677C1024.2 815.52 940.413 959.987 940.413 959.987C940.413 959.987 953.323 1001.21 963.883 1004.04C974.437 1006.87 1114.68 849.195 1102.62 784.902C1090.55 720.609 986.501 619.574 986.501 619.574C986.501 619.574 938.247 693.052 933.721 689.991"/><path fill="#E69783" d="M1005.77 639.36C994.271 627.123 986.501 619.574 986.501 619.574C986.501 619.574 938.247 693.052 933.721 689.99C933.721 689.99 939.184 695.731 947.407 704.599C963.49 680.207 983.767 658.687 1005.77 639.36"/><path fill="#F9B29B" d="M564.915 587.035C564.915 587.035 475.552 676.982 458.986 678.725C442.415 680.474 299.048 597.258 299.048 597.258C299.048 597.258 258.609 610.89 255.955 621.64C253.301 632.389 410.395 772.742 473.569 759.677C536.747 746.617 634.947 639.714 634.947 639.714C634.947 639.714 561.954 591.666 564.915 587.035"/><path fill="#E69783" d="M615.702 659.525C627.606 647.697 634.947 639.713 634.947 639.713C634.947 639.713 561.955 591.665 564.916 587.034C564.916 587.034 559.331 592.651 550.701 601.111C574.931 617.125 596.387 637.433 615.702 659.525Z"/><path fill="#8E4E51" d="M838.693 146.787C838.693 146.787 849.373 43.2427 913.141 78.5327C955.856 102.174 965.197 173.101 908.906 195.367C852.616 217.628 809.735 209.603 838.693 146.787Z"/><path fill="#F9B29B" d="M443.553 509.512C443.553 509.512 443.598 493.881 427.284 497.51C410.964 501.14 392.917 508.623 399.957 517.471C406.996 526.319 442.511 524.494 443.553 509.512Z"/><path fill="#F9B29B" d="M731.42 436.115L729.899 494.484L682.365 502.366L764.387 610.659L853.885 511.311L811.518 500.94L811.794 433.672L731.42 436.115"/><path fill="#E69783" d="M811.663 466.064L811.794 433.667L731.42 436.116L730.367 479.748L811.663 466.064Z"/><path fill="#F9B29B" d="M871.061 305.281C871.061 305.281 887.36 282.636 902.386 297.797C917.406 312.958 899.511 364.094 872.033 362.509C844.56 360.925 871.061 305.281 871.061 305.281Z"/><path fill="#F9B29B" d="M761.934 114.642C761.934 114.642 651.946 114.621 644.036 210.238C637.032 294.961 607.479 458.091 752.503 456.363C899.958 454.615 874.706 224.805 874.706 224.805C874.706 224.805 874.822 108.513 761.934 114.642"/><path fill="#E69783" d="M713.177 292.375C712.734 296.561 711.696 300.425 710.543 304.223C709.36 308.011 707.905 311.64 706.298 315.193C703.015 322.257 699.163 329.004 694.42 335.266L693.473 330.67C700.014 336.896 706.475 343.224 712.371 350.283C704.204 346.174 696.59 341.343 689.062 336.4L687.003 335.051L688.116 331.805C690.674 324.347 694.128 317.375 698.146 310.72C700.196 307.413 702.386 304.182 704.858 301.105C707.356 298.043 709.974 295.048 713.177 292.375"/><path fill="#433E40" d="M676.625 291.649C676.041 302.086 679.274 310.766 683.841 311.026C688.413 311.292 692.592 303.042 693.177 292.604C693.761 282.167 690.528 273.487 685.961 273.227C681.389 272.961 677.209 281.211 676.625 291.649Z"/><path fill="#433E40" d="M782.373 294.609C781.788 305.046 785.021 313.726 789.588 313.986C794.16 314.252 798.34 306.002 798.924 295.564C799.508 285.127 796.275 276.447 791.703 276.186C787.136 275.921 782.957 284.171 782.373 294.609"/><path fill="#7A3D40" d="M752.805 257.176C752.805 257.176 755.463 253.496 761.083 249.831C763.883 248.016 767.377 246.15 771.446 244.888C773.465 244.234 775.64 243.743 777.861 243.36C780.117 243.181 782.413 242.808 784.739 243.053L788.214 243.303L791.602 244.06C793.878 244.423 795.908 245.527 797.907 246.35C799.976 247.055 801.577 248.522 803.234 249.56C804.936 250.557 806.18 251.983 807.378 253.179C808.546 254.411 809.714 255.407 810.419 256.619C811.205 257.743 811.829 258.761 812.348 259.584C813.365 261.245 813.869 262.211 813.869 262.211C813.869 262.211 812.887 261.638 811.301 260.606C810.51 260.079 809.553 259.466 808.526 258.709C807.549 257.892 806.134 257.386 804.845 256.568C803.491 255.837 802.121 254.917 800.495 254.334C798.873 253.751 797.333 252.811 795.535 252.407C793.773 251.906 792.01 251.293 790.112 251.088L787.307 250.587L784.422 250.449C782.508 250.183 780.56 250.516 778.641 250.49C776.738 250.746 774.809 250.812 772.982 251.206C771.159 251.599 769.341 251.86 767.659 252.346C765.952 252.744 764.366 253.256 762.855 253.664C756.919 255.52 752.805 257.176 752.805 257.176"/><path fill="#7A3D40" d="M651.493 252.392C651.493 252.392 653.719 248.86 658.689 245.2C661.181 243.416 664.298 241.5 668.019 240.217C669.852 239.527 671.866 239.036 673.911 238.627C676.005 238.427 678.13 238.049 680.3 238.284C681.378 238.361 682.461 238.417 683.528 238.54L686.665 239.302C688.785 239.659 690.598 240.84 692.441 241.622C694.309 242.389 695.714 243.82 697.199 244.843C698.735 245.824 699.732 247.281 700.799 248.405C701.827 249.581 702.804 250.598 703.383 251.743C704.047 252.811 704.561 253.783 704.984 254.565C705.825 256.144 706.233 257.059 706.233 257.059C706.233 257.059 705.356 256.492 703.942 255.474C703.247 254.958 702.391 254.35 701.484 253.614C700.618 252.822 699.39 252.254 698.226 251.472C696.993 250.782 695.84 249.79 694.369 249.218C692.914 248.635 691.544 247.71 689.948 247.26C688.357 246.8 686.806 246.105 685.094 245.916L682.576 245.43L679.988 245.287C678.266 245.032 676.514 245.364 674.782 245.359C673.07 245.645 671.322 245.711 669.676 246.141C668.029 246.545 666.393 246.851 664.872 247.357C663.331 247.771 661.911 248.323 660.542 248.743C655.199 250.695 651.493 252.392 651.493 252.392Z"/><path fill="#E69783" d="M899.198 312.35C897.945 310.837 896.535 309.493 895.049 308.537C893.564 307.535 891.983 307.203 890.789 307.612C890.17 307.775 889.601 308.164 889.042 308.644C888.533 308.946 887.798 309.912 887.597 310.157L886.031 312.616C885.401 313.423 885.079 314.211 884.787 314.977L883.8 317.247L882.909 319.828C882.239 321.515 881.831 323.345 881.338 325.134C880.351 328.697 879.616 332.464 878.951 336.057L877.541 333.312C879.404 334.529 881.006 335.756 882.521 337.34C883.987 338.915 885.522 340.653 886.172 343.254C886.509 344.558 886.338 346.076 885.724 347.333C885.326 347.86 884.908 348.366 884.495 348.826L883.06 349.767C882.607 350.114 882.078 350.201 881.59 350.395C881.086 350.554 880.608 350.743 880.114 350.86C879.117 351.049 878.11 351.152 877.138 351.285L879.646 349.746L880.764 348.872L881.771 347.988L882.577 347.042L882.959 346.081C883.005 345.473 882.964 344.977 882.642 344.399C882.003 343.26 880.754 342.038 879.359 341.01C877.954 340.009 876.348 338.991 874.862 338.225L873.327 337.432L873.453 335.475C873.588 333.384 873.82 331.431 874.183 329.443C874.55 327.465 874.918 325.487 875.431 323.529C876.031 321.587 876.539 319.634 877.355 317.727C877.743 316.771 878.075 315.811 878.523 314.87L880.175 311.962C880.724 310.975 881.287 310.04 881.927 309.375L883.845 307.198C885.004 306.109 885.588 305.587 886.771 304.969C887.783 304.376 889.047 303.962 890.326 303.931C891.605 303.814 892.879 304.218 893.931 304.739C894.943 305.347 895.805 306.083 896.474 306.911C897.839 308.552 898.69 310.428 899.198 312.35"/><path fill="#433E40" d="M212.057 500.383L531.194 502.699L533.475 935.416L214.338 926.159L212.057 500.383"/><path fill="#fff" d="M373.853 616.752C373.853 616.752 423.699 579.428 461.101 613.046C508.877 655.988 458.916 739.189 444.973 773.682C430.365 809.825 416.493 807.05 406.654 802.72C392.384 796.454 399.327 753.297 373.853 753.915C344.588 754.621 360.756 803.676 332.523 803.957C301.641 804.269 287.034 742.174 272.426 695.838C257.682 649.062 293.162 564.855 373.853 616.752"/><path fill="#F3627F" d="M387.353 720.153H354.915V640.858H387.353V720.153Z"/><path fill="#F3627F" d="M410.188 664.046V696.969H332.08V664.046H410.188"/><path fill="#F9B29B" d="M349.371 482.448C349.371 482.448 336.491 479.053 336.491 496.008C336.491 512.969 339.356 532.464 347.941 527.378C356.527 522.292 361.537 486.685 349.371 482.448Z"/><path fill="#F9B29B" d="M403.753 482.448C403.753 482.448 390.873 479.053 390.873 496.008C390.873 512.969 393.733 532.464 402.323 527.378C410.909 522.292 415.919 486.685 403.753 482.448Z"/><path fill="#F9B29B" d="M367.977 475.74C367.977 475.74 355.097 471.411 355.097 493.053C355.097 514.69 357.957 539.578 366.547 533.086C375.132 526.595 380.138 481.148 367.977 475.74Z"/><path fill="#F9B29B" d="M388.013 475.74C388.013 475.74 375.132 471.411 375.132 493.053C375.132 514.69 377.993 539.578 386.578 533.086C395.168 526.595 400.173 481.148 388.013 475.74Z"/><path fill="#fff" d="M635.607 338.562C635.607 338.562 724.647 369.559 828.507 340.198L822.313 434.486C822.313 434.486 776.129 479.401 702.753 449.836C629.378 420.275 635.607 338.562 635.607 338.562Z"/><path fill="#9E5D5E" d="M800.877 184.704C800.877 184.704 796.139 258.913 859.187 287.379C859.187 287.379 840.823 324.152 854.695 346.827C854.695 346.827 869.076 298.001 888.593 292.624C888.593 292.624 911.233 241.907 895.371 181.877C883.558 137.156 849.056 135.459 844.992 135.229C844.992 135.229 805.621 79.1609 723.932 102.827C642.243 126.489 634.695 209.408 634.695 209.408C634.695 209.408 735.78 224.104 800.877 184.704Z"/><path fill="#8E4E51" d="M895.371 181.877C891.041 165.479 883.654 154.904 875.839 148.029C866.745 187.715 843.446 217.873 813.713 243.706C822.192 260.472 836.15 276.977 859.187 287.379C859.187 287.379 840.823 324.152 854.695 346.827C854.695 346.827 869.076 298.001 888.593 292.624C888.593 292.624 911.233 241.907 895.371 181.877"/><path fill="#fff" d="M888.231 288.515L817.892 351.678L801.562 411.09L846.876 404.828L846.256 400.192L807.882 405.498L821.966 354.265L891.283 292.016L888.231 288.515"/><path fill="#1BB3B2" d="M689.611 498.845L769.447 592.356L840.068 501.958C840.068 501.958 875.381 506.635 906.086 520.661C906.086 520.661 976.717 563.823 1002.82 605.901L922.98 711.884L909.732 708.894L890.733 788.726L935.256 958.608C935.256 958.608 856.956 1064.59 602.096 980.424L632.802 738.858C632.802 738.858 606.704 712.359 603.632 690.543C600.56 668.722 614.382 642.229 614.382 642.229L563.717 573.653C563.717 573.653 620.521 503.517 689.611 498.845"/><path fill="#B9E7DD" d="M927.542 966.754V966.749C932.86 961.847 935.257 958.606 935.257 958.606C935.257 958.606 932.865 961.847 927.542 966.754Z"/><path fill="#15B1AD" d="M778.883 1012.91C866.73 1012.9 911.097 981.9 927.542 966.75V966.755C911.092 981.91 866.74 1012.91 778.883 1012.91Z"/><path fill="#B9E7DD" d="M603.31 980.822C602.907 980.689 602.504 980.556 602.096 980.424C602.504 980.556 602.907 980.689 603.31 980.822ZM602.096 980.424L625.007 800.181L602.096 980.424ZM890.734 788.725L903.896 733.424L890.734 788.725Z"/><path fill="#15B1AD" d="M778.868 1012.91C778.858 1012.91 778.853 1012.91 778.843 1012.91C732.946 1012.9 675.155 1004.43 603.31 980.822C602.907 980.689 602.504 980.556 602.096 980.423L625.007 800.18C631.73 797.414 638.497 794.782 645.25 792.088C652.853 790.585 660.461 789.067 668.05 787.508C746.999 771.31 825.309 751.61 903.896 733.423L890.734 788.725L935.257 958.607C935.257 958.607 932.86 961.848 927.542 966.75C911.097 981.9 866.73 1012.9 778.883 1012.91H778.868Z"/><path fill="#25B6B7" d="M840.068 501.958L769.447 592.356L689.611 498.84C679.389 499.535 669.449 501.682 659.912 504.8L772.518 639.111L867.43 507.473C851.72 503.512 840.068 501.958 840.068 501.958"/><path fill="#F9B29B" d="M951.869 963.616C948.621 960.4 941.466 963.043 941.466 963.043C923.399 938.477 901.958 952.626 901.958 952.626C818.245 994.924 901.379 968.569 901.379 968.569C830.803 1020.93 909.788 980.274 909.788 980.274C854.913 1056.58 919.219 992.665 919.219 992.665C903.151 1075.08 932.11 999.361 936.148 996.299C940.187 993.237 955.726 1009.72 964.719 1005.48C968.067 1003.9 971.784 997.94 975.132 991.075C966.824 982.38 960.041 972.423 951.869 963.616"/><path fill="#548176" d="M849.061 648.776L846.488 648.745L846.871 618.117L849.444 618.147L849.061 648.776Z"/><path fill="#375951" d="M852.697 665.685L852.47 649.425C852.44 647.14 850.587 645.305 848.331 645.341C846.075 645.372 844.273 647.253 844.303 649.543L844.524 665.445C847.243 665.486 849.968 665.573 852.697 665.685"/><path fill="#CAEDE0" d="M831.79 598.503C829.977 610.878 836.548 622.128 846.468 623.626C856.388 625.123 865.899 616.306 867.712 603.931C869.53 591.556 862.959 580.311 853.039 578.813C843.119 577.315 833.608 586.128 831.79 598.503"/><path fill="#548176" d="M831.79 598.504C831.79 598.504 831.901 598.013 832.102 597.088C832.369 596.188 832.445 594.757 833.124 593.127C833.744 591.465 834.519 589.462 835.924 587.417C837.238 585.342 839.132 583.251 841.564 581.426C842.717 580.419 844.263 579.898 845.708 579.095C847.309 578.784 849.066 577.981 850.753 578.17C854.293 577.828 858.085 579.32 861.176 581.687C864.419 584.033 866.534 587.775 867.869 591.67L868.719 594.686L869.087 597.88C869.445 600.135 869.017 601.852 868.981 604.127C868.08 608.226 866.877 612.371 864.339 615.709C861.947 619.042 858.845 621.986 855.074 623.274C854.213 623.745 853.216 623.924 852.239 624.092C851.277 624.22 850.285 624.598 849.409 624.44C848.513 624.389 847.626 624.343 846.75 624.292C845.713 624.159 844.963 623.791 844.081 623.556C842.314 623.203 840.99 621.946 839.534 621.184C838.386 619.993 837.057 619.037 836.241 617.734C834.439 615.27 833.225 612.709 832.565 610.337C831.805 607.97 831.639 605.813 831.523 604.045C831.342 602.281 831.679 600.896 831.679 599.956C831.755 599.01 831.79 598.504 831.79 598.504V598.504ZM831.79 598.504C831.79 598.504 831.765 599.01 831.715 599.956C831.735 600.896 831.433 602.292 831.654 604.045C831.805 605.803 832.022 607.924 832.827 610.255C833.542 612.571 834.751 615.111 836.679 617.371C837.541 618.582 838.885 619.42 840.028 620.489C841.468 621.117 842.747 622.237 844.419 622.446C845.194 622.61 846.081 622.927 846.78 622.978C847.657 622.973 848.548 622.968 849.444 622.963C850.386 623.065 851.121 622.625 851.962 622.472C852.782 622.273 853.608 622.099 854.384 621.603C857.682 620.243 860.315 617.412 862.455 614.391C864.701 611.319 865.688 607.48 866.443 603.743C866.786 599.818 866.942 595.979 865.683 592.38C864.5 588.853 862.788 585.378 860.023 583.098C857.375 580.818 854.077 579.213 850.723 579.341C848.956 579.049 847.541 579.75 845.98 579.918C844.58 580.598 843.054 581.002 841.881 581.907C839.388 583.496 837.5 585.572 836.156 587.576C834.716 589.564 833.9 591.532 833.245 593.173C832.53 594.783 832.425 596.199 832.133 597.098C831.911 598.018 831.79 598.504 831.79 598.504"/><path fill="#548176" d="M867.712 603.932C867.712 603.932 867.606 604.428 867.405 605.348C867.138 606.252 867.058 607.679 866.378 609.314C865.763 610.975 864.983 612.979 863.578 615.024C862.269 617.099 860.376 619.19 857.944 621.015C856.785 622.022 855.245 622.543 853.799 623.345C852.198 623.652 850.441 624.46 848.754 624.271C845.214 624.613 841.418 623.121 838.331 620.754C835.088 618.408 832.973 614.661 831.634 610.771C830.158 606.876 830.214 602.276 830.511 598.422C831.437 594.107 832.621 590.115 835.164 586.726C837.56 583.399 840.662 580.449 844.434 579.166C845.295 578.691 846.287 578.517 847.269 578.343C848.225 578.221 849.222 577.842 850.098 578.001C850.995 578.047 851.881 578.098 852.757 578.144C853.789 578.277 854.54 578.645 855.426 578.885C857.193 579.238 858.518 580.495 859.968 581.257C861.121 582.448 862.445 583.404 863.266 584.707C865.069 587.171 866.282 589.727 866.942 592.104C867.697 594.47 867.868 596.622 867.979 598.396C868.16 600.16 867.828 601.545 867.823 602.485C867.752 603.431 867.712 603.932 867.712 603.932V603.932ZM867.712 603.932C867.712 603.932 867.742 603.431 867.793 602.485C867.773 601.54 868.075 600.144 867.853 598.396C867.697 596.638 867.48 594.511 866.675 592.185C865.96 589.87 864.756 587.324 862.828 585.07C861.967 583.854 860.617 583.021 859.474 581.952C858.039 581.318 856.755 580.204 855.084 579.989C854.308 579.831 853.422 579.514 852.722 579.463C851.846 579.468 850.959 579.473 850.058 579.478C849.122 579.376 848.381 579.816 847.54 579.969C846.72 580.168 845.894 580.342 845.124 580.838C841.82 582.198 839.187 585.024 837.047 588.05C834.806 591.071 833.804 595.063 833.074 598.59C832.706 602.725 832.565 606.416 833.824 610.061C835.002 613.588 836.72 617.063 839.479 619.343C842.133 621.623 845.426 623.228 848.779 623.1C850.547 623.386 851.967 622.691 853.528 622.522C854.922 621.843 856.453 621.439 857.621 620.534C860.119 618.944 862.002 616.869 863.352 614.865C864.787 612.877 865.607 610.909 866.257 609.268C866.972 607.658 867.083 606.242 867.37 605.343C867.596 604.423 867.712 603.932 867.712 603.932"/><path fill="#375951" d="M831.79 598.504C831.79 598.504 831.901 598.013 832.102 597.088C832.369 596.188 832.445 594.757 833.124 593.127C833.744 591.465 834.519 589.462 835.924 587.417C837.238 585.342 839.132 583.251 841.564 581.426C842.717 580.419 844.263 579.898 845.708 579.095C847.309 578.784 849.066 577.981 850.753 578.17C854.293 577.828 858.085 579.32 861.176 581.687C864.419 584.033 866.534 587.775 867.869 591.67L868.719 594.686L869.087 597.88C869.445 600.135 869.017 601.852 868.981 604.127C868.08 608.226 866.877 612.371 864.339 615.709C861.947 619.042 858.845 621.986 855.074 623.274C854.213 623.745 853.216 623.924 852.239 624.092C851.277 624.22 850.285 624.598 849.409 624.44C848.513 624.389 847.626 624.343 846.75 624.292C845.713 624.159 844.963 623.791 844.081 623.556C842.314 623.203 840.99 621.946 839.534 621.184C838.386 619.993 837.057 619.037 836.241 617.734C834.439 615.27 833.225 612.709 832.565 610.337C831.805 607.97 831.639 605.813 831.523 604.045C831.342 602.281 831.679 600.896 831.679 599.956C831.755 599.01 831.79 598.504 831.79 598.504V598.504ZM831.79 598.504C831.79 598.504 831.765 599.01 831.715 599.956C831.735 600.896 831.433 602.292 831.654 604.045C831.805 605.803 832.022 607.924 832.827 610.255C833.542 612.571 834.751 615.111 836.679 617.371C837.541 618.582 838.885 619.42 840.028 620.489C841.468 621.117 842.747 622.237 844.419 622.446C845.194 622.61 846.081 622.927 846.78 622.978C847.657 622.973 848.548 622.968 849.444 622.963C850.386 623.065 851.121 622.625 851.962 622.472C852.782 622.273 853.608 622.099 854.384 621.603C857.682 620.243 860.315 617.412 862.455 614.391C864.701 611.319 865.688 607.48 866.443 603.743C866.786 599.818 866.942 595.979 865.683 592.38C864.5 588.853 862.788 585.378 860.023 583.098C857.375 580.818 854.077 579.213 850.723 579.341C848.956 579.049 847.541 579.75 845.98 579.918C844.58 580.598 843.054 581.002 841.881 581.907C839.388 583.496 837.5 585.572 836.156 587.576C834.716 589.564 833.9 591.532 833.245 593.173C832.53 594.783 832.425 596.199 832.133 597.098C831.911 598.018 831.79 598.504 831.79 598.504"/><path fill="#375951" d="M867.712 603.932C867.712 603.932 867.606 604.428 867.405 605.348C867.138 606.252 867.058 607.679 866.378 609.314C865.763 610.975 864.983 612.979 863.578 615.024C862.269 617.099 860.376 619.19 857.944 621.015C856.785 622.022 855.245 622.543 853.799 623.345C852.198 623.652 850.441 624.46 848.754 624.271C845.214 624.613 841.418 623.121 838.331 620.754C835.088 618.408 832.973 614.661 831.634 610.771C830.158 606.876 830.214 602.276 830.511 598.422C831.437 594.107 832.621 590.115 835.164 586.726C837.56 583.399 840.662 580.449 844.434 579.166C845.295 578.691 846.287 578.517 847.269 578.343C848.225 578.221 849.222 577.842 850.098 578.001C850.995 578.047 851.881 578.098 852.757 578.144C853.789 578.277 854.54 578.645 855.426 578.885C857.193 579.238 858.518 580.495 859.968 581.257C861.121 582.448 862.445 583.404 863.266 584.707C865.069 587.171 866.282 589.727 866.942 592.104C867.697 594.47 867.868 596.622 867.979 598.396C868.16 600.16 867.828 601.545 867.823 602.485C867.752 603.431 867.712 603.932 867.712 603.932V603.932ZM867.712 603.932C867.712 603.932 867.742 603.431 867.793 602.485C867.773 601.54 868.075 600.144 867.853 598.396C867.697 596.638 867.48 594.511 866.675 592.185C865.96 589.87 864.756 587.324 862.828 585.07C861.967 583.854 860.617 583.021 859.474 581.952C858.039 581.318 856.755 580.204 855.084 579.989C854.308 579.831 853.422 579.514 852.722 579.463C851.846 579.468 850.959 579.473 850.058 579.478C849.122 579.376 848.381 579.816 847.54 579.969C846.72 580.168 845.894 580.342 845.124 580.838C841.82 582.198 839.187 585.024 837.047 588.05C834.806 591.071 833.804 595.063 833.074 598.59C832.706 602.725 832.565 606.416 833.824 610.061C835.002 613.588 836.72 617.063 839.479 619.343C842.133 621.623 845.426 623.228 848.779 623.1C850.547 623.386 851.967 622.691 853.528 622.522C854.922 621.843 856.453 621.439 857.621 620.534C860.119 618.944 862.002 616.869 863.352 614.865C864.787 612.877 865.607 610.909 866.257 609.268C866.972 607.658 867.083 606.242 867.37 605.343C867.596 604.423 867.712 603.932 867.712 603.932"/><path fill="#548176" d="M891.081 656.229L888.881 656.239L888.704 614.866L890.91 614.856L891.081 656.229"/><path fill="#548176" d="M890.945 625.887L890.91 614.856L888.704 614.866L888.745 626.26C889.48 626.142 890.215 626.014 890.945 625.887"/><path fill="#548176" d="M888.729 615.781C888.588 610.26 887.405 609.258 885.044 607.26C883.941 606.33 882.571 605.169 881.035 603.339C878.784 600.671 877.782 598.33 877.959 596.198C878.15 593.893 879.686 592.303 881.161 591.051C883.89 588.741 892.586 588.265 893.568 588.219L892.994 589.456C889.58 589.615 884.248 591.486 882.642 592.85C881.292 593.995 880.371 595.033 880.26 596.393C880.139 597.855 880.99 599.679 882.788 601.821C884.202 603.498 885.431 604.54 886.519 605.461C889.263 607.781 891.197 609.447 891.066 614.999L890.945 625.886L888.76 626.183L888.729 615.781"/><path fill="#375951" d="M894.893 669.176L894.732 647.595C894.712 645.147 892.738 643.174 890.326 643.194C887.914 643.215 885.976 645.213 885.991 647.662L886.152 668.251C889.072 668.553 891.988 668.859 894.893 669.176Z"/><path fill="#25B6B7" d="M810.36 661.064H905.317L902.643 681.735L806.346 672.549L810.36 661.064"/><path fill="#25B6B7" d="M911.459 707.681L994.367 585.342L1014.33 605.599L928.348 718.594L911.459 707.681Z"/><path fill="#25B6B7" d="M613.758 645.817L614.383 643.675L616.643 642.637C617.847 641.421 619.101 640.265 620.415 639.177L569.089 561.185L551.435 577.046L610.697 649.906C611.653 648.48 612.676 647.115 613.758 645.817"/><path fill="#CFD8D5" d="M642.863 1873.61C640.698 1873.61 638.946 1871.83 638.946 1869.64C638.946 1867.44 640.698 1865.66 642.863 1865.66C645.023 1865.66 646.776 1867.44 646.776 1869.64C646.776 1871.83 645.023 1873.61 642.863 1873.61Z"/><path fill="#CFD8D5" d="M650.391 1884.01C648.231 1884.01 646.478 1882.23 646.478 1880.04C646.478 1877.84 648.231 1876.06 650.391 1876.06C652.556 1876.06 654.308 1877.84 654.308 1880.04C654.308 1882.23 652.556 1884.01 650.391 1884.01Z"/><path fill="#CFD8D5" d="M658.825 1894.41C656.665 1894.41 654.912 1892.63 654.912 1890.43C654.912 1888.24 656.665 1886.46 658.825 1886.46C660.99 1886.46 662.742 1888.24 662.742 1890.43C662.742 1892.63 660.99 1894.41 658.825 1894.41Z"/><path fill="#CFD8D5" d="M627.893 1879.46C625.727 1879.46 623.975 1877.68 623.975 1875.48C623.975 1873.29 625.727 1871.51 627.893 1871.51C630.053 1871.51 631.81 1873.29 631.81 1875.48C631.81 1877.68 630.053 1879.46 627.893 1879.46Z"/><path fill="#CFD8D5" d="M635.42 1889.86C633.26 1889.86 631.508 1888.08 631.508 1885.88C631.508 1883.69 633.26 1881.9 635.42 1881.9C637.586 1881.9 639.338 1883.69 639.338 1885.88C639.338 1888.08 637.586 1889.86 635.42 1889.86Z"/><path fill="#CFD8D5" d="M643.859 1900.25C641.694 1900.25 639.942 1898.48 639.942 1896.28C639.942 1894.08 641.694 1892.3 643.859 1892.3C646.02 1892.3 647.772 1894.08 647.772 1896.28C647.772 1898.48 646.02 1900.25 643.859 1900.25Z"/><path fill="#CFD8D5" d="M609.851 1884.53C607.691 1884.53 605.938 1882.75 605.938 1880.55C605.938 1878.35 607.691 1876.57 609.851 1876.57C612.016 1876.57 613.768 1878.35 613.768 1880.55C613.768 1882.75 612.016 1884.53 609.851 1884.53Z"/><path fill="#CFD8D5" d="M617.384 1894.92C615.218 1894.92 613.466 1893.14 613.466 1890.95C613.466 1888.75 615.218 1886.97 617.384 1886.97C619.544 1886.97 621.301 1888.75 621.301 1890.95C621.301 1893.14 619.544 1894.92 617.384 1894.92Z"/><path fill="#CFD8D5" d="M625.818 1905.32C623.653 1905.32 621.901 1903.54 621.901 1901.34C621.901 1899.15 623.653 1897.37 625.818 1897.37C627.978 1897.37 629.736 1899.15 629.736 1901.34C629.736 1903.54 627.978 1905.32 625.818 1905.32Z"/><path fill="#CFD8D5" d="M593.733 1890.37C591.568 1890.37 589.815 1888.59 589.815 1886.39C589.815 1884.2 591.568 1882.42 593.733 1882.42C595.893 1882.42 597.645 1884.2 597.645 1886.39C597.645 1888.59 595.893 1890.37 593.733 1890.37Z"/><path fill="#CFD8D5" d="M601.26 1900.77C599.1 1900.77 597.348 1898.99 597.348 1896.79C597.348 1894.6 599.1 1892.82 601.26 1892.82C603.426 1892.82 605.178 1894.6 605.178 1896.79C605.178 1898.99 603.426 1900.77 601.26 1900.77Z"/><path fill="#CFD8D5" d="M609.694 1911.16C607.534 1911.16 605.782 1909.38 605.782 1907.18C605.782 1904.99 607.534 1903.21 609.694 1903.21C611.86 1903.21 613.612 1904.99 613.612 1907.18C613.612 1909.38 611.86 1911.16 609.694 1911.16Z"/><path fill="#CFD8D5" d="M1075.44 1887.54C1074.92 1887.54 1074.38 1887.43 1073.87 1887.2C1071.89 1886.32 1070.99 1883.98 1071.86 1881.96C1072.5 1880.47 1073.94 1879.58 1075.45 1879.58C1075.97 1879.58 1076.5 1879.69 1077.01 1879.92C1078.99 1880.79 1079.9 1883.14 1079.03 1885.15C1078.39 1886.64 1076.95 1887.54 1075.44 1887.54"/><path fill="#CFD8D5" d="M1072.64 1874.95C1072.12 1874.95 1071.58 1874.84 1071.08 1874.62C1069.1 1873.74 1068.19 1871.39 1069.06 1869.38C1069.7 1867.88 1071.14 1866.99 1072.65 1866.99C1073.17 1866.99 1073.7 1867.1 1074.21 1867.33C1076.2 1868.21 1077.1 1870.55 1076.23 1872.56C1075.59 1874.06 1074.15 1874.95 1072.64 1874.95"/><path fill="#CFD8D5" d="M1069.02 1861.99C1068.49 1861.99 1067.96 1861.88 1067.45 1861.66C1065.47 1860.78 1064.56 1858.44 1065.43 1856.42C1066.08 1854.93 1067.51 1854.04 1069.02 1854.04C1069.54 1854.04 1070.08 1854.15 1070.59 1854.37C1072.57 1855.25 1073.47 1857.59 1072.61 1859.61C1071.96 1861.1 1070.53 1861.99 1069.02 1861.99Z"/><path fill="#CFD8D5" d="M1091.46 1888.27C1090.94 1888.27 1090.41 1888.16 1089.9 1887.93C1087.91 1887.05 1087.01 1884.71 1087.88 1882.69C1088.52 1881.2 1089.96 1880.31 1091.47 1880.31C1091.99 1880.31 1092.52 1880.42 1093.03 1880.64C1095.01 1881.52 1095.92 1883.87 1095.05 1885.88C1094.41 1887.37 1092.97 1888.27 1091.46 1888.27"/><path fill="#CFD8D5" d="M1088.66 1875.68C1088.14 1875.68 1087.61 1875.57 1087.1 1875.34C1085.11 1874.47 1084.21 1872.12 1085.08 1870.11C1085.72 1868.61 1087.16 1867.72 1088.67 1867.72C1089.19 1867.72 1089.73 1867.83 1090.24 1868.06C1092.22 1868.94 1093.12 1871.28 1092.25 1873.3C1091.61 1874.79 1090.18 1875.68 1088.66 1875.68"/><path fill="#CFD8D5" d="M1085.04 1862.72C1084.51 1862.72 1083.98 1862.61 1083.47 1862.39C1081.49 1861.51 1080.59 1859.17 1081.45 1857.15C1082.09 1855.66 1083.53 1854.77 1085.04 1854.77C1085.57 1854.77 1086.1 1854.88 1086.61 1855.1C1088.59 1855.98 1089.49 1858.32 1088.63 1860.34C1087.98 1861.83 1086.55 1862.72 1085.04 1862.72"/><path fill="#CFD8D5" d="M1109.99 1890.96C1109.46 1890.96 1108.94 1890.85 1108.42 1890.62C1106.44 1889.74 1105.54 1887.4 1106.4 1885.39C1107.05 1883.9 1108.49 1883.01 1109.99 1883.01C1110.52 1883.01 1111.05 1883.11 1111.56 1883.34C1113.54 1884.22 1114.44 1886.56 1113.58 1888.57C1112.94 1890.07 1111.5 1890.96 1109.99 1890.96"/><path fill="#CFD8D5" d="M1107.19 1878.37C1106.67 1878.37 1106.14 1878.26 1105.63 1878.04C1103.64 1877.16 1102.74 1874.81 1103.6 1872.81C1104.25 1871.31 1105.69 1870.42 1107.2 1870.42C1107.72 1870.42 1108.25 1870.53 1108.77 1870.75C1110.74 1871.63 1111.65 1873.98 1110.78 1875.99C1110.14 1877.48 1108.7 1878.37 1107.19 1878.37"/><path fill="#CFD8D5" d="M1103.57 1865.41C1103.05 1865.41 1102.51 1865.31 1102 1865.08C1100.02 1864.2 1099.11 1861.86 1099.98 1859.85C1100.62 1858.36 1102.06 1857.47 1103.57 1857.47C1104.09 1857.47 1104.63 1857.57 1105.13 1857.8C1107.12 1858.68 1108.03 1861.02 1107.16 1863.03C1106.51 1864.53 1105.07 1865.41 1103.57 1865.41"/><path fill="#CFD8D5" d="M1127.07 1892.16C1126.55 1892.16 1126.01 1892.05 1125.5 1891.82C1123.52 1890.94 1122.62 1888.6 1123.48 1886.59C1124.12 1885.1 1125.56 1884.2 1127.07 1884.2C1127.6 1884.2 1128.13 1884.31 1128.64 1884.54C1130.62 1885.42 1131.52 1887.76 1130.66 1889.77C1130.01 1891.27 1128.58 1892.16 1127.07 1892.16Z"/><path fill="#CFD8D5" d="M1124.27 1879.57C1123.75 1879.57 1123.21 1879.46 1122.7 1879.23C1120.72 1878.36 1119.82 1876.02 1120.68 1874C1121.33 1872.51 1122.76 1871.62 1124.27 1871.62C1124.8 1871.62 1125.33 1871.73 1125.84 1871.95C1127.82 1872.83 1128.73 1875.18 1127.86 1877.19C1127.21 1878.68 1125.78 1879.57 1124.27 1879.57Z"/><path fill="#CFD8D5" d="M1120.64 1866.61C1120.12 1866.61 1119.59 1866.51 1119.08 1866.28C1117.09 1865.4 1116.19 1863.06 1117.06 1861.05C1117.7 1859.55 1119.14 1858.66 1120.65 1858.66C1121.17 1858.66 1121.7 1858.77 1122.21 1858.99C1124.19 1859.87 1125.1 1862.22 1124.23 1864.23C1123.59 1865.72 1122.15 1866.61 1120.64 1866.61"/></svg>